{
  "source": "C:\\Users\\Peter\\Desktop\\stuff\\MIUN\\quantitative_research\\video_compression\\videos\\BVI-HD\\BVI-HD_CDVL_videos\\ORIG\\PaintingTilting_1920x1080_60fps.mp4",
  "output": "C:\\Users\\Peter\\Desktop\\stuff\\MIUN\\quantitative_research\\video_compression\\compressed_videos\\BVI-HD\\h264\\4\\PaintingTilting_1920x1080_60fps_h264.mp4",
  "codec": "h264",
  "ok": "Input #0, mov,mp4,m4a,3gp,3g2,mj2, from 'C:\\Users\\Peter\\Desktop\\stuff\\MIUN\\quantitative_research\\video_compression\\videos\\BVI-HD\\BVI-HD_CDVL_videos\\ORIG\\PaintingTilting_1920x1080_60fps.mp4':\n  Metadata:\n    major_brand     : isom\n    minor_version   : 512\n    compatible_brands: isomiso2avc1mp41\n    encoder         : Lavf54.28.101\n  Duration: 00:00:05.00, start: 0.000000, bitrate: 667707 kb/s\n  Stream #0:0[0x1](und): Video: h264 (High 4:4:4 Predictive) (avc1 / 0x31637661), yuv420p(progressive), 1920x1080, 667702 kb/s, 60 fps, 60 tbr, 60 tbn (default)\n    Metadata:\n      handler_name    : VideoHandler\n      vendor_id       : [0][0][0][0]\n[out#0/mp4 @ 0000028baa959cc0] Codec AVOption b:a (set bitrate (in bits/s)) has not been used for any stream. The most likely reason is either wrong type (e.g. a video option with no video streams) or that it is a private option of some decoder which was not actually used for any stream.\nStream mapping:\n  Stream #0:0 -> #0:0 (h264 (native) -> h264 (libx264))\nPress [q] to stop, [?] for help\n[libx264 @ 0000028baa96bc80] using cpu capabilities: MMX2 SSE2Fast SSSE3 SSE4.2 AVX FMA3 BMI2 AVX2\n[libx264 @ 0000028baa96bc80] profile High, level 5.0, 4:2:0, 8-bit\n[libx264 @ 0000028baa96bc80] 264 - core 165 r3222 b35605a - H.264/MPEG-4 AVC codec - Copyleft 2003-2025 - http://www.videolan.org/x264.html - options: cabac=1 ref=5 deblock=1:0:0 analyse=0x3:0x113 me=hex subme=8 psy=1 psy_rd=1.00:0.00 mixed_ref=1 me_range=16 chroma_me=1 trellis=2 8x8dct=1 cqm=0 deadzone=21,11 fast_pskip=1 chroma_qp_offset=-2 threads=18 lookahead_threads=3 sliced_threads=0 nr=0 decimate=1 interlaced=0 bluray_compat=0 constrained_intra=0 bframes=3 b_pyramid=2 b_adapt=1 b_bias=0 direct=3 weightb=1 open_gop=0 weightp=2 keyint=250 keyint_min=25 scenecut=40 intra_refresh=0 rc_lookahead=50 rc=cbr mbtree=1 bitrate=4000 ratetol=1.0 qcomp=0.60 qpmin=0 qpmax=69 qpstep=4 vbv_maxrate=4000 vbv_bufsize=4000 nal_hrd=none filler=0 ip_ratio=1.40 aq=1:1.00\nOutput #0, mp4, to 'C:\\Users\\Peter\\Desktop\\stuff\\MIUN\\quantitative_research\\video_compression\\compressed_videos\\BVI-HD\\h264\\4\\PaintingTilting_1920x1080_60fps_h264.mp4':\n  Metadata:\n    major_brand     : isom\n    minor_version   : 512\n    compatible_brands: isomiso2avc1mp41\n    encoder         : Lavf62.3.100\n  Stream #0:0(und): Video: h264 (avc1 / 0x31637661), yuv420p(tv, progressive), 1920x1080, q=2-31, 4000 kb/s, 60 fps, 15360 tbn (default)\n    Metadata:\n      encoder         : Lavc62.11.100 libx264\n      handler_name    : VideoHandler\n      vendor_id       : [0][0][0][0]\n    Side data:\n      cpb: bitrate max/min/avg: 4000000/0/4000000 buffer size: 4000000 vbv_delay: N/A\nframe=    0 fps=0.0 q=0.0 size=       0KiB time=N/A bitrate=N/A speed=N/A elapsed=0:00:01.07    \nframe=    0 fps=0.0 q=0.0 size=       0KiB time=N/A bitrate=N/A speed=N/A elapsed=0:00:01.64    \nframe=    0 fps=0.0 q=0.0 size=       0KiB time=N/A bitrate=N/A speed=N/A elapsed=0:00:02.21    \nframe=   12 fps=4.3 q=41.0 size=       0KiB time=00:00:00.10 bitrate=   3.8kbits/s speed=0.036x elapsed=0:00:02.77    \nframe=   44 fps= 13 q=36.0 size=     256KiB time=00:00:00.68 bitrate=3069.6kbits/s speed=0.203x elapsed=0:00:03.36    \nframe=   67 fps= 17 q=36.0 size=     256KiB time=00:00:01.06 bitrate=1966.4kbits/s speed=0.272x elapsed=0:00:03.92    \nframe=   94 fps= 21 q=36.0 size=     256KiB time=00:00:01.50 bitrate=1398.4kbits/s speed=0.332x elapsed=0:00:04.52    \nframe=  114 fps= 22 q=36.0 size=     512KiB time=00:00:01.85 bitrate=2267.4kbits/s speed=0.361x elapsed=0:00:05.12    \nframe=  136 fps= 24 q=35.0 size=     512KiB time=00:00:02.23 bitrate=1878.2kbits/s speed=0.393x elapsed=0:00:05.68    \nframe=  164 fps= 26 q=35.0 size=     768KiB time=00:00:02.60 bitrate=2419.9kbits/s speed=0.417x elapsed=0:00:06.23    \nframe=  189 fps= 27 q=38.0 size=     768KiB time=00:00:03.08 bitrate=2040.6kbits/s speed=0.448x elapsed=0:00:06.88    \nframe=  211 fps= 28 q=37.0 size=    1024KiB time=00:00:03.48 bitrate=2408.3kbits/s speed=0.465x elapsed=0:00:07.48    \nframe=  233 fps= 29 q=37.0 size=    1024KiB time=00:00:03.85 bitrate=2179.0kbits/s speed=0.48x elapsed=0:00:08.02    \nframe=  250 fps= 29 q=39.0 size=    1024KiB time=00:00:04.13 bitrate=2029.6kbits/s speed=0.484x elapsed=0:00:08.54    \nframe=  275 fps= 30 q=35.0 size=    1536KiB time=00:00:04.50 bitrate=2796.3kbits/s speed=0.497x elapsed=0:00:09.04    \n[mp4 @ 0000028baa96a600] Starting second pass: moving the moov atom to the beginning of the file\n[out#0/mp4 @ 0000028baa959cc0] video:1633KiB audio:0KiB subtitle:0KiB other streams:0KiB global headers:0KiB muxing overhead: 0.267347%\nframe=  300 fps= 32 q=-1.0 Lsize=    1638KiB time=00:00:04.96 bitrate=2700.9kbits/s speed=0.537x elapsed=0:00:09.25    \n[libx264 @ 0000028baa96bc80] frame I:2     Avg QP:34.38  size:210348\n[libx264 @ 0000028baa96bc80] frame P:76    Avg QP:33.88  size: 13062\n[libx264 @ 0000028baa96bc80] frame B:222   Avg QP:40.74  size:  1163\n[libx264 @ 0000028baa96bc80] consecutive B-frames:  1.3%  0.0%  0.0% 98.7%\n[libx264 @ 0000028baa96bc80] mb I  I16..4:  0.0% 90.7%  9.3%\n[libx264 @ 0000028baa96bc80] mb P  I16..4:  0.0%  0.6%  0.0%  P16..4: 26.8%  5.6%  4.4%  0.0%  0.0%    skip:62.6%\n[libx264 @ 0000028baa96bc80] mb B  I16..4:  0.0%  0.0%  0.0%  B16..8: 12.0%  0.3%  0.2%  direct: 0.3%  skip:87.2%  L0:24.5% L1:75.1% BI: 0.4%\n[libx264 @ 0000028baa96bc80] 8x8 transform intra:90.9% inter:73.8%\n[libx264 @ 0000028baa96bc80] direct mvs  spatial:95.5% temporal:4.5%\n[libx264 @ 0000028baa96bc80] coded y,uvDC,uvAC intra: 95.0% 94.0% 74.9% inter: 2.5% 5.2% 0.8%\n[libx264 @ 0000028baa96bc80] i16 v,h,dc,p: 56% 11% 20% 13%\n[libx264 @ 0000028baa96bc80] i8 v,h,dc,ddl,ddr,vr,hd,vl,hu: 20%  7%  5%  7% 10% 13%  8% 15% 13%\n[libx264 @ 0000028baa96bc80] i4 v,h,dc,ddl,ddr,vr,hd,vl,hu: 14%  5%  3%  8% 14% 18% 12% 15% 13%\n[libx264 @ 0000028baa96bc80] i8c dc,h,v,p: 51% 13% 21% 15%\n[libx264 @ 0000028baa96bc80] Weighted P-Frames: Y:2.6% UV:0.0%\n[libx264 @ 0000028baa96bc80] ref P L0: 63.2% 31.1%  3.3%  1.4%  1.0%  0.0%\n[libx264 @ 0000028baa96bc80] ref B L0: 99.0%  0.3%  0.6%  0.1%\n[libx264 @ 0000028baa96bc80] ref B L1: 99.5%  0.5%\n[libx264 @ 0000028baa96bc80] kb/s:2674.55\n",
  "seconds": 9.78648591041565,
  "probe_out": {}
}